<?xml version="1.0" standalone="no"?>
<!DOCTYPE svg PUBLIC "-//W3C//DTD SVG 20010904//EN"
 "http://www.w3.org/TR/2001/REC-SVG-20010904/DTD/svg10.dtd">
<svg version="1.0" xmlns="http://www.w3.org/2000/svg"
 width="432.000000pt" height="432.000000pt" viewBox="0 0 432.000000 432.000000"
 preserveAspectRatio="xMidYMid meet">
<metadata>
Created by potrace 1.14, written by Peter Selinger 2001-2017
</metadata>
<g transform="translate(0.000000,432.000000) scale(0.100000,-0.100000)"
fill="#000000" stroke="none">
<path d="M1015 2720 c-120 -61 -158 -192 -89 -306 l32 -53 -33 -21 c-18 -11
-42 -39 -53 -61 l-21 -41 -37 73 c-21 41 -43 81 -49 90 -5 9 -18 31 -28 48
-36 63 -86 114 -142 144 -52 27 -155 29 -205 3 -77 -40 -105 -82 -115 -172 -8
-77 -17 -105 -76 -232 -74 -158 -82 -172 -107 -179 -39 -9 -78 -67 -81 -119
-5 -103 68 -155 227 -159 96 -3 158 9 211 41 27 16 30 16 57 -3 42 -29 75 -35
204 -39 63 -2 118 -3 123 -4 4 0 7 -13 7 -28 0 -43 51 -106 101 -127 62 -25
112 -29 182 -15 106 21 171 66 207 144 18 41 24 46 43 40 38 -13 210 -11 256
2 36 11 54 11 101 0 97 -23 346 -6 365 24 2 4 25 -3 51 -15 53 -26 159 -32
214 -12 28 10 41 10 66 1 41 -17 151 -12 191 9 29 15 34 15 70 0 39 -16 227
-24 303 -11 45 7 101 35 118 60 13 17 15 17 53 -16 26 -22 57 -37 91 -44 61
-12 219 -8 244 6 12 7 27 7 43 0 41 -15 210 -17 266 -3 41 11 61 11 120 -2 90
-19 204 -10 264 21 73 38 101 120 65 193 -14 30 -18 63 -19 163 0 111 -3 131
-24 173 -27 55 -84 102 -145 118 -52 14 -152 7 -198 -15 -32 -16 -37 -16 -76
2 -53 24 -144 27 -199 8 -38 -13 -46 -13 -73 0 -38 20 -121 13 -217 -16 l-70
-21 -37 24 c-32 22 -44 24 -108 21 -40 -2 -82 -4 -93 -3 -107 7 -186 1 -250
-21 -38 -13 -80 -30 -93 -38 -20 -13 -25 -13 -40 1 -25 22 -92 53 -132 62 -68
15 -185 5 -254 -21 -9 -3 -18 11 -26 41 -30 108 -156 177 -308 170 -64 -3
-154 -26 -179 -47 -9 -7 -15 2 -23 32 -14 54 -84 125 -136 139 -84 23 -164 7
-222 -46 l-36 -33 -25 23 c-51 46 -84 60 -150 64 -52 3 -74 -1 -106 -17z"/>
</g>
</svg>
